<svg data-v-fde0c5aa="" xmlns="http://www.w3.org/2000/svg" viewBox="0 0 300 300" class="iconLeft"><!----><defs data-v-fde0c5aa=""><linearGradient data-v-fde0c5aa="" gradientTransform="rotate(25)" id="44ddf8fb-4ba8-4d6c-b4b5-434eddb6a93f" x1="0%" y1="0%" x2="100%" y2="0%"><stop data-v-fde0c5aa="" offset="0%" stop-color="#A92580" stop-opacity="1"></stop><stop data-v-fde0c5aa="" offset="100%" stop-color="#F7BC00" stop-opacity="1"></stop></linearGradient></defs><rect data-v-fde0c5aa="" fill="url(#44ddf8fb-4ba8-4d6c-b4b5-434eddb6a93f)" x="0" y="0" width="300px" height="300px" class="logo-background-square"></rect><defs data-v-fde0c5aa=""><!----></defs><g data-v-fde0c5aa="" id="6a9ec823-4b5d-4c3c-946c-78573cfc7a61" fill="#ffffff" transform="matrix(4.31879809104772,0,0,4.31879809104772,114.28374721845417,111.77863627641865)"><path d="M7.59 13.75L1.02 13.75L1.02 13.75Q1.02 12.74 1.27 11.91L1.27 11.91L1.27 11.91Q1.53 11.07 2.01 10.47L2.01 10.47L2.01 10.47Q2.49 9.86 3.02 9.43L3.02 9.43L3.02 9.43Q3.54 9.00 4.26 8.58L4.26 8.58L4.26 8.58Q5.01 8.12 5.42 7.70L5.42 7.70L5.42 7.70Q5.82 7.28 5.82 6.68L5.82 6.68L5.82 6.68Q5.82 6.08 5.45 5.71L5.45 5.71L5.45 5.71Q5.07 5.35 4.42 5.35L4.42 5.35L4.42 5.35Q3.11 5.35 2.63 6.57L2.63 6.57L1.15 5.89L1.15 5.89Q1.53 4.94 2.40 4.36L2.40 4.36L2.40 4.36Q3.28 3.78 4.40 3.78L4.40 3.78L4.40 3.78Q5.84 3.78 6.67 4.59L6.67 4.59L6.67 4.59Q7.50 5.39 7.50 6.64L7.50 6.64L7.50 6.64Q7.50 7.28 7.33 7.78L7.33 7.78L7.33 7.78Q7.15 8.29 6.75 8.69L6.75 8.69L6.75 8.69Q6.36 9.10 5.99 9.36L5.99 9.36L5.99 9.36Q5.61 9.62 4.97 10.00L4.97 10.00L4.97 10.00Q3.23 11.05 2.97 12.15L2.97 12.15L7.59 12.15L7.59 13.75ZM12.94 13.92L12.94 13.92L12.94 13.92Q11.96 13.92 11.24 13.48L11.24 13.48L11.24 13.48Q10.51 13.03 10.13 12.28L10.13 12.28L10.13 12.28Q9.74 11.52 9.57 10.68L9.57 10.68L9.57 10.68Q9.39 9.83 9.39 8.85L9.39 8.85L9.39 8.85Q9.39 7.90 9.56 7.06L9.56 7.06L9.56 7.06Q9.73 6.23 10.11 5.46L10.11 5.46L10.11 5.46Q10.49 4.69 11.21 4.24L11.21 4.24L11.21 4.24Q11.94 3.78 12.94 3.78L12.94 3.78L12.94 3.78Q13.93 3.78 14.65 4.22L14.65 4.22L14.65 4.22Q15.37 4.66 15.76 5.42L15.76 5.42L15.76 5.42Q16.14 6.17 16.32 7.02L16.32 7.02L16.32 7.02Q16.49 7.87 16.49 8.85L16.49 8.85L16.49 8.85Q16.49 9.80 16.32 10.63L16.32 10.63L16.32 10.63Q16.14 11.47 15.76 12.24L15.76 12.24L15.76 12.24Q15.39 13.01 14.66 13.46L14.66 13.46L14.66 13.46Q13.93 13.92 12.94 13.92ZM11.80 11.82L11.80 11.82L11.80 11.82Q12.24 12.35 12.94 12.35L12.94 12.35L12.94 12.35Q13.64 12.35 14.08 11.80L14.08 11.80L14.08 11.80Q14.52 11.26 14.67 10.52L14.67 10.52L14.67 10.52Q14.81 9.79 14.81 8.85L14.81 8.85L14.81 8.85Q14.81 7.90 14.66 7.15L14.66 7.15L14.66 7.15Q14.50 6.41 14.06 5.88L14.06 5.88L14.06 5.88Q13.62 5.35 12.94 5.35L12.94 5.35L12.94 5.35Q12.24 5.35 11.80 5.89L11.80 5.89L11.80 5.89Q11.35 6.44 11.21 7.18L11.21 7.18L11.21 7.18Q11.06 7.91 11.06 8.85L11.06 8.85L11.06 8.85Q11.06 9.80 11.21 10.54L11.21 10.54L11.21 10.54Q11.37 11.28 11.80 11.82ZM13.64 9.55L13.64 9.55L13.64 9.55Q13.36 9.84 12.94 9.84L12.94 9.84L12.94 9.84Q12.52 9.84 12.24 9.55L12.24 9.55L12.24 9.55Q11.96 9.27 11.96 8.85L11.96 8.85L11.96 8.85Q11.96 8.44 12.24 8.16L12.24 8.16L12.24 8.16Q12.52 7.87 12.94 7.87L12.94 7.87L12.94 7.87Q13.36 7.87 13.64 8.16L13.64 8.16L13.64 8.16Q13.93 8.44 13.93 8.85L13.93 8.85L13.93 8.85Q13.93 9.27 13.64 9.55ZM24.12 13.75L22.50 13.75L22.50 11.62L17.81 11.62L17.81 10.58L22.50 3.95L24.12 3.95L24.12 10.09L25.37 10.09L25.37 11.62L24.12 11.62L24.12 13.75ZM19.96 10.09L22.50 10.09L22.50 6.27L19.96 10.09ZM30.17 13.92L30.17 13.92L30.17 13.92Q28.57 13.92 27.60 13.06L27.60 13.06L27.60 13.06Q26.63 12.21 26.63 10.84L26.63 10.84L26.63 10.84Q26.63 10.00 27.10 9.35L27.10 9.35L27.10 9.35Q27.57 8.71 28.38 8.37L28.38 8.37L28.38 8.37Q27.79 8.09 27.41 7.57L27.41 7.57L27.41 7.57Q27.03 7.04 27.03 6.36L27.03 6.36L27.03 6.36Q27.03 5.22 27.89 4.50L27.89 4.50L27.89 4.50Q28.76 3.78 30.17 3.78L30.17 3.78L30.17 3.78Q31.60 3.78 32.47 4.50L32.47 4.50L32.47 4.50Q33.33 5.22 33.33 6.36L33.33 6.36L33.33 6.36Q33.33 7.04 32.95 7.57L32.95 7.57L32.95 7.57Q32.56 8.09 31.96 8.36L31.96 8.36L31.96 8.36Q32.77 8.69 33.26 9.35L33.26 9.35L33.26 9.35Q33.74 10.01 33.74 10.84L33.74 10.84L33.74 10.84Q33.74 12.21 32.76 13.06L32.76 13.06L32.76 13.06Q31.78 13.92 30.17 13.92ZM29.09 7.34L29.09 7.34L29.09 7.34Q29.50 7.69 30.17 7.69L30.17 7.69L30.17 7.69Q30.84 7.69 31.26 7.34L31.26 7.34L31.26 7.34Q31.68 7.00 31.68 6.48L31.68 6.48L31.68 6.48Q31.68 5.94 31.26 5.60L31.26 5.60L31.26 5.60Q30.84 5.26 30.17 5.26L30.17 5.26L30.17 5.26Q29.50 5.26 29.09 5.60L29.09 5.60L29.09 5.60Q28.69 5.94 28.69 6.48L28.69 6.48L28.69 6.48Q28.69 7.00 29.09 7.34ZM28.82 11.96L28.82 11.96L28.82 11.96Q29.34 12.42 30.17 12.42L30.17 12.42L30.17 12.42Q31.00 12.42 31.53 11.96L31.53 11.96L31.53 11.96Q32.06 11.51 32.06 10.78L32.06 10.78L32.06 10.78Q32.06 10.08 31.53 9.62L31.53 9.62L31.53 9.62Q31.00 9.16 30.17 9.16L30.17 9.16L30.17 9.16Q29.34 9.16 28.82 9.62L28.82 9.62L28.82 9.62Q28.29 10.08 28.29 10.78L28.29 10.78L28.29 10.78Q28.29 11.51 28.82 11.96Z"></path></g><defs data-v-fde0c5aa=""><!----></defs><g data-v-fde0c5aa="" id="e84c489c-957f-4ed1-ba86-d356475a9326" stroke="none" fill="#ffffff" transform="matrix(2.0527787871546344,0,0,2.0527787871546344,40,117.15553940552584)"><path d="M4.029 14.362L14.362 4.028l.707.707L4.736 15.07zM17.135 27.47L27.47 17.135l.707.707-10.333 10.333zM4.029 17.841l.707-.707 10.333 10.334-.707.707zM17.135 4.735l.708-.707L28.176 14.36l-.707.707z"></path><g><path d="M16 1.414l1.683 1.683L16 4.779l-1.683-1.683L16 1.414M16 0l-3.097 3.097L16 6.194l3.097-3.097L16 0zM16 27.221l1.683 1.683L16 30.586l-1.683-1.683L16 27.221m0-1.415l-3.097 3.097L16 32l3.097-3.097L16 25.806zM3.097 14.317L4.779 16l-1.683 1.683L1.414 16l1.683-1.683m0-1.414L0 16l3.097 3.097L6.194 16l-3.097-3.097zM28.903 14.317L30.586 16l-1.683 1.683L27.221 16l1.682-1.683m0-1.414L25.806 16l3.097 3.097L32 16l-3.097-3.097z"></path></g></g><!----></svg>